<?xml version="1.0" encoding="UTF-8"?>
<svg width="74px" height="50px" viewBox="0 0 74 50" version="1.1" xmlns="http://www.w3.org/2000/svg" xmlns:xlink="http://www.w3.org/1999/xlink">
    <!-- Generator: Sketch 52.2 (67145) - http://www.bohemiancoding.com/sketch -->
    <title>analytics</title>
    <desc>Created with Sketch.</desc>
    <g id="Page-1" stroke="none" stroke-width="1" fill="none" fill-rule="evenodd">
        <g id="main" transform="translate(-1109.000000, -1000.000000)">
            <g id="about" transform="translate(0.000000, 808.000000)">
                <g id="Group" transform="translate(1105.000000, 93.000000)">
                    <g id="Group-4" transform="translate(4.000000, 99.000000)">
                        <g id="analytics">
                            <path d="M26.7598753,43.4444686 L26.7598753,46 L47.2398347,46 L47.2398347,43.4444686 L69,43.4444686 L69,2.55553143 C69,1.14365641 67.8543542,0 66.4400232,0 L7.5599768,0 C6.14564581,0 5,1.14365641 5,2.55553143 L5,43.4444686 L26.7598753,43.4444686 Z" id="Path" fill="#38454F"></path>
                            <path d="M47.2069414,44 L47.2069414,46.3999728 L26.7930586,46.3999728 L26.7930586,44 L0,44 L0,47.6000272 C0,48.9259595 1.14194141,50 2.55169922,50 L71.4483008,50 C72.8580586,50 74,48.9259595 74,47.6000272 L74,44 L47.2069414,44 Z" id="Path" fill="#B0B6BB"></path>
                            <polygon id="Path" fill="#546A79" points="8 41 66 41 66 3 8 3"></polygon>
                            <g id="Group" transform="translate(41.000000, 20.000000)" fill="#25AE88">
                                <path d="M1.3383125,17.955 C0.636525,17.955 0.0692875,17.3808871 0.0692875,16.6735161 L0.0692875,12.8292097 C0.0692875,12.1218387 0.636525,11.5477258 1.3383125,11.5477258 C2.0401,11.5477258 2.6073375,12.1218387 2.6073375,12.8292097 L2.6073375,16.6735161 C2.6073375,17.3808871 2.0401,17.955 1.3383125,17.955" id="Path"></path>
                                <path d="M6.41426875,17.955 C5.71248125,17.955 5.14524375,17.3808871 5.14524375,16.6735161 L5.14524375,7.70356452 C5.14524375,6.99619355 5.71248125,6.42208065 6.41426875,6.42208065 C7.11605625,6.42208065 7.68329375,6.99619355 7.68329375,7.70356452 L7.68329375,16.6735161 C7.68315,17.3808871 7.1159125,17.955 6.41426875,17.955" id="Path"></path>
                                <path d="M11.4900812,17.955 C10.7882937,17.955 10.2210562,17.3808871 10.2210562,16.6735161 L10.2210562,10.2663871 C10.2210562,9.55901613 10.7882937,8.98490323 11.4900812,8.98490323 C12.1918687,8.98490323 12.7591062,9.55901613 12.7591062,10.2663871 L12.7591062,16.6735161 C12.7591062,17.3808871 12.1918687,17.955 11.4900812,17.955" id="Path"></path>
                                <path d="M16.5658937,17.955 C15.8641062,17.955 15.2968687,17.3808871 15.2968687,16.6735161 L15.2968687,1.29643548 C15.2968687,0.589064516 15.8641062,0.0149516129 16.5658937,0.0149516129 C17.2676812,0.0149516129 17.8349187,0.589064516 17.8349187,1.29643548 L17.8349187,16.6735161 C17.8349187,17.3808871 17.2676812,17.955 16.5658937,17.955" id="Path"></path>
                                <path d="M21.64185,17.955 C20.9400625,17.955 20.372825,17.3808871 20.372825,16.6735161 L20.372825,6.42208065 C20.372825,5.71470968 20.9400625,5.14059677 21.64185,5.14059677 C22.3436375,5.14059677 22.910875,5.71470968 22.910875,6.42208065 L22.910875,16.6735161 C22.9107312,17.3808871 22.3434937,17.955 21.64185,17.955" id="Path"></path>
                            </g>
                            <path d="M37,19.5 C37,26.9558043 30.9559499,33 23.5,33 C16.0440501,33 10,26.9559499 10,19.5 C10,12.0440501 16.0441957,6 23.5,6 C30.9558043,6 37,12.0440501 37,19.5" id="Path" fill="#DD691D"></path>
                            <path d="M23.0178777,6.01398648 C23.011534,6.02033019 23.0076413,6.02537633 23,6.03186422 L23,19.9528547 C23,19.9795271 23.0216263,20 23.0471453,20 L36.9681358,20 C36.9744795,19.9936563 36.9795256,19.9897636 36.9860135,19.9821223 C37.3411173,12.1128901 30.8871099,5.65888271 23.0178777,6.01398648" id="Path" fill="#ECBA16"></path>
                            <g id="Group" transform="translate(45.000000, 5.000000)" fill="#DD691D">
                                <path d="M11.4019851,8.99506452 L1.3885597,8.99506452 C0.696335821,8.99506452 0.136828358,8.42095161 0.136828358,7.71358065 C0.136828358,7.00620968 0.696335821,6.43209677 1.3885597,6.43209677 L11.4019851,6.43209677 C12.094209,6.43209677 12.6537164,7.00620968 12.6537164,7.71358065 C12.6535746,8.42095161 12.0940672,8.99506452 11.4019851,8.99506452" id="Path"></path>
                                <path d="M17.6603582,8.99506452 C17.3349478,8.99506452 17.0082612,8.8541129 16.7716119,8.62345161 C16.7215597,8.55943548 16.6590299,8.49527419 16.6214552,8.43125806 C16.571403,8.35432258 16.5338284,8.27753226 16.5088731,8.20059677 C16.4712985,8.12366129 16.4463433,8.04687097 16.4337239,7.96993548 C16.4212463,7.88022581 16.4086269,7.79051613 16.4086269,7.71358065 C16.4086269,7.54693548 16.4462015,7.38043548 16.5087313,7.22670968 C16.5712612,7.07298387 16.6588881,6.93203226 16.7716119,6.80385484 C17.2347015,6.32975806 18.0733955,6.32975806 18.5489627,6.80385484 C18.6615448,6.93203226 18.7491716,7.06020968 18.8118433,7.22670968 C18.8743731,7.38043548 18.9119478,7.54708065 18.9119478,7.71358065 C18.9119478,8.0595 18.7742687,8.37987097 18.5489627,8.62345161 C18.3111791,8.85396774 17.9857687,8.99506452 17.6603582,8.99506452" id="Path"></path>
                                <path d="M17.6603582,2.58793548 L13.905306,2.58793548 C13.2130821,2.58793548 12.6535746,2.01382258 12.6535746,1.30645161 C12.6535746,0.599080645 13.2130821,0.0249677419 13.905306,0.0249677419 L17.6603582,0.0249677419 C18.3525821,0.0249677419 18.9120896,0.599080645 18.9120896,1.30645161 C18.9119478,2.01382258 18.3524403,2.58793548 17.6603582,2.58793548" id="Path"></path>
                                <path d="M3.8918806,2.58793548 L1.3885597,2.58793548 C0.696335821,2.58793548 0.136828358,2.01382258 0.136828358,1.30645161 C0.136828358,0.599080645 0.696335821,0.0249677419 1.3885597,0.0249677419 L3.8918806,0.0249677419 C4.58410448,0.0249677419 5.14361194,0.599080645 5.14361194,1.30645161 C5.14361194,2.01382258 4.58410448,2.58793548 3.8918806,2.58793548" id="Path"></path>
                                <path d="M8.89866418,2.58793548 C8.73588806,2.58793548 8.57325373,2.54946774 8.42309701,2.48545161 C8.2603209,2.42143548 8.13526119,2.33172581 8.0100597,2.21632258 C7.89747761,2.08814516 7.80985075,1.94719355 7.7471791,1.79346774 C7.67202985,1.63974194 7.64707463,1.47309677 7.64707463,1.30659677 C7.64707463,1.13995161 7.67217164,0.973451613 7.7471791,0.819725806 C7.80970896,0.653080645 7.89733582,0.525048387 8.0100597,0.396870968 C8.13526119,0.281612903 8.26046269,0.191903226 8.42309701,0.127741935 C8.88618657,-0.0644516129 9.43690299,0.0380322581 9.78741045,0.396870968 C9.89999254,0.525048387 9.9876194,0.653225806 10.050291,0.819725806 C10.1128209,0.973451613 10.1503955,1.14009677 10.1503955,1.30659677 C10.1503955,1.47324194 10.1128209,1.63974194 10.050291,1.79346774 C9.98776119,1.94719355 9.90013433,2.08814516 9.78741045,2.21632258 C9.54948507,2.44698387 9.22407463,2.58793548 8.89866418,2.58793548" id="Path"></path>
                            </g>
                        </g>
                    </g>
                </g>
            </g>
        </g>
    </g>
</svg>