<?xml version="1.0" encoding="UTF-8"?>
<svg width="81px" height="65px" viewBox="0 0 81 65" version="1.1" xmlns="http://www.w3.org/2000/svg" xmlns:xlink="http://www.w3.org/1999/xlink">
    <!-- Generator: Sketch 52.2 (67145) - http://www.bohemiancoding.com/sketch -->
    <title>imac</title>
    <desc>Created with Sketch.</desc>
    <g id="Page-1" stroke="none" stroke-width="1" fill="none" fill-rule="evenodd">
        <g id="main" transform="translate(-1105.000000, -901.000000)">
            <g id="about" transform="translate(0.000000, 808.000000)">
                <g id="Group" transform="translate(1105.000000, 93.000000)">
                    <g id="comp">
                        <g id="imac">
                            <path d="M81,52.9164911 C81,54.0291931 80.0840057,54.9310345 78.9533302,54.9310345 L2.04666983,54.9310345 C0.916152508,54.9310345 0,54.0291931 0,52.9166469 L0,2.01485482 C0,0.902464342 0.916152508,0 2.04666983,0 L78.9533302,0 C80.0838475,0 81,0.902464342 81,2.01485482 L81,52.9164911 Z" id="Path" fill="#E2E5E7"></path>
                            <path d="M50.147584,54.9310345 L41.4311095,54.9310345 L32.714485,54.9310345 C32.714485,54.9310345 32.3612807,61.0758898 31.6551724,62.3793103 L41.4311095,62.3793103 L51.2068966,62.3793103 C50.5006382,61.0757314 50.147584,54.9310345 50.147584,54.9310345 Z" id="Path" fill="#D1D5D5"></path>
                            <path d="M51.1976141,63.1108374 C50.074644,62.9111039 49.4667731,62.3793103 49.4667731,62.3793103 L39.1035278,62.3793103 L28.7401235,62.3793103 C28.7401235,62.3793103 28.1322525,62.91133 27.0092825,63.1108374 C25.8866307,63.310571 25.137931,63.4431236 25.137931,64.2413793 L39.1035278,64.2413793 L53.0689655,64.2413793 C53.0689655,63.4431236 52.3204249,63.3103448 51.1976141,63.1108374 Z" id="Path" fill="#C6CBCB"></path>
                            <path d="M78.9534844,0 L2.04667383,0 C0.916154297,0 0,0.897836306 0,2.0045222 L0,47.4827586 L81,47.4827586 L81,2.0045222 C81.0001582,0.897836306 80.0840039,0 78.9534844,0 Z M77.647834,44.6343168 L36.9981738,44.6343168 L3.35232422,44.6343168 L3.35232422,2.84906158 L63.0871348,2.84906158 L77.647834,2.84906158 L77.647834,44.6343168 Z" id="Shape" fill="#2D404E" fill-rule="nonzero"></path>
                            <polygon id="Path" fill="#FC9D00" points="3.72413793 3.72413793 3.72413793 45.6206897 37.0331529 45.6206897 77.2758621 45.6206897 77.2758621 3.72413793 62.8609326 3.72413793"></polygon>
                            <path d="M50.1105016,54.9310345 L40.965596,54.9310345 L31.8205329,54.9310345 C31.8205329,54.9310345 31.7652552,55.7374654 31.6551724,56.7931034 L50.2758621,56.7931034 C50.1656218,55.7374654 50.1105016,54.9310345 50.1105016,54.9310345 Z" id="Path" fill="#C6CBCB"></path>
                            <circle id="Oval" fill="#2D404E" cx="40.0344828" cy="52.137931" r="1"></circle>
                            <path d="M78.9605862,0 L64.9202251,0 L35.3793103,47.4827586 L81,47.4827586 L81,2.0045222 C81.0001577,0.897836306 80.0871826,0 78.9605862,0 Z" id="Path" fill="#E2E5E7" opacity="0.16"></path>
                        </g>
                    </g>
                </g>
            </g>
        </g>
    </g>
</svg>