<?xml version="1.0" encoding="UTF-8"?>
<svg width="74px" height="72px" viewBox="0 0 74 72" version="1.1" xmlns="http://www.w3.org/2000/svg" xmlns:xlink="http://www.w3.org/1999/xlink">
    <!-- Generator: Sketch 52.2 (67145) - http://www.bohemiancoding.com/sketch -->
    <title>printer (1)</title>
    <desc>Created with Sketch.</desc>
    <g id="Page-1" stroke="none" stroke-width="1" fill="none" fill-rule="evenodd">
        <g id="main" transform="translate(-1108.000000, -1085.000000)">
            <g id="about" transform="translate(0.000000, 808.000000)">
                <g id="Group" transform="translate(1105.000000, 93.000000)">
                    <g id="Group-3" transform="translate(3.000000, 184.000000)">
                        <g id="printer-(1)">
                            <path d="M65.3816195,5 L8.61838053,5 C6.62043217,5 5,6.58225361 5,8.53436296 L5,21 L69,21 L69,8.53436296 C69,6.58225361 67.3795678,5 65.3816195,5 Z" id="Path" fill="#D6D8D9"></path>
                            <polygon id="Path" fill="#BEBFC0" points="64 5 10 5 10 21 64 21"></polygon>
                            <path d="M68.9199523,13 L5.08004768,13 C2.27523811,13 0,15.321499 0,18.1833369 L0,41.6569748 L37,51 L74,41.6569748 L74,18.1833369 C74,15.321499 71.7247619,13 68.9199523,13 Z" id="Path" fill="#AAAFB3"></path>
                            <path d="M74,42 L74,55.0069672 C74,57.763734 71.7247619,60 68.9199523,60 L5.08004768,60 C2.27523811,60 0,57.763734 0,55.0069672 L0,42 L74,42 Z" id="Path" fill="#D6D8D9"></path>
                            <path d="M15,51 L15,67.6793183 C15,70.0658653 16.9057982,72 19.2561123,72 L55.7438877,72 C58.0942018,72 60,70.0658653 60,67.6793183 L60,51 L15,51 Z" id="Path" fill="#F8EED3"></path>
                            <path d="M63.8820955,52 L11.1179045,52 C10.5007398,52 10,51.5520729 10,51.0000001 C10,50.4474216 10.5007398,50 11.1179045,50 L63.8820955,50 C64.4992602,50 65,50.4474216 65,51.0000001 C65,51.5520729 64.4992602,52 63.8820955,52 Z" id="Path" fill="#4E555C"></path>
                            <path d="M15,28 L15,4.18927114 C15,1.87530933 16.9057982,0 19.2561123,0 L55.7438877,0 C58.0942018,0 60,1.87530933 60,4.18927114 L60,28 L15,28 Z" id="Path" fill="#F8EED3"></path>
                            <path d="M69,35.5000001 C69,36.8806777 67.8805432,38 66.4996996,38 C65.118856,38 64,36.8806777 64,35.5000001 C64,34.1193223 65.118856,33 66.4996996,33 C67.8805432,33 69,34.1193223 69,35.5000001 Z" id="Path" fill="#EE8688"></path>
                            <path d="M69,26.5003004 C69,27.8811442 67.8805432,29 66.4996996,29 C65.118856,29 64,27.8811442 64,26.5003004 C64,25.1194568 65.118856,24 66.4996996,24 C67.8805432,24 69,25.1194568 69,26.5003004 Z" id="Path" fill="#99D1C2"></path>
                            <polygon id="Path" fill="#ECD8A4" points="15 24 60 24 60 28 15 28"></polygon>
                            <polygon id="Path" fill="#ECD8A4" points="15 52 60 52 60 56 15 56"></polygon>
                        </g>
                    </g>
                </g>
            </g>
        </g>
    </g>
</svg>