<?xml version="1.0" encoding="UTF-8"?>
<svg width="179px" height="80px" viewBox="0 0 179 80" version="1.1" xmlns="http://www.w3.org/2000/svg" xmlns:xlink="http://www.w3.org/1999/xlink">
    <!-- Generator: Sketch 52.2 (67145) - http://www.bohemiancoding.com/sketch -->
    <title>logo</title>
    <desc>Created with Sketch.</desc>
    <g id="Page-1" stroke="none" stroke-width="1" fill="none" fill-rule="evenodd">
        <g id="main" transform="translate(-384.000000, -14.000000)" fill="#050458">
            <g id="header" transform="translate(0.000000, 6.000000)">
                <g id="top-menu" transform="translate(384.000000, 0.000000)">
                    <g id="logo" transform="translate(0.000000, 8.000000)">
                        <path d="M95.166069,54.3074286 C95.3646906,54.3074286 95.6361362,54.2942224 95.9804138,54.2678095 C96.3114499,54.2413967 96.556413,54.2281905 96.7153103,54.2281905 C97.6091079,54.2281905 98.257929,54.3965697 98.6617931,54.7333333 C99.0656572,55.0700969 99.2675862,55.5818378 99.2675862,56.2685714 C99.2675862,56.8694633 99.1285531,57.3845058 98.8504828,57.8137143 C98.5724124,58.2429228 98.1834508,58.5697767 97.6835862,58.7942857 C97.1837216,59.0187948 96.6060722,59.1310476 95.9506207,59.1310476 C95.6791711,59.1310476 95.4441389,59.1244445 95.2455172,59.1112381 L95.0171034,61.072381 L96.2088276,61.2110476 L96.1790345,61.6666667 L92.862069,61.6666667 L92.9117241,61.2110476 L93.5969655,61.072381 L94.4013793,54.911619 L93.7062069,54.7927619 L93.7657931,54.3074286 L95.166069,54.3074286 Z M95.3249655,58.4971429 C95.5103458,58.5367621 95.735447,58.5565714 96.0002759,58.5565714 C96.5828995,58.5499682 97.0314467,58.3386687 97.345931,57.9226667 C97.6604154,57.5066646 97.8209655,56.9354957 97.8275862,56.2091429 C97.8275862,55.2648842 97.3806941,54.7927619 96.4868966,54.7927619 C96.2684127,54.7927619 96.0433115,54.8125712 95.8115862,54.8521905 L95.3249655,58.4971429 Z M103.766345,60.6761905 C103.594206,60.946922 103.314485,61.2011417 102.927172,61.4388571 C102.53986,61.6765726 102.091313,61.7954286 101.581517,61.7954286 C101.104825,61.7954286 100.712553,61.6930804 100.40469,61.488381 C100.096826,61.2836815 99.87338,61.0162556 99.7343448,60.6860952 C99.5953096,60.3559349 99.5257931,59.9960654 99.5257931,59.6064762 C99.5257931,58.9461554 99.6598607,58.3436218 99.928,57.7988571 C100.196139,57.2540925 100.561929,56.8232397 101.025379,56.5062857 C101.48883,56.1893317 102.005239,56.0308571 102.574621,56.0308571 C103.084416,56.0308571 103.463447,56.1480623 103.711724,56.3824762 C103.960001,56.6168901 104.084138,56.9222838 104.084138,57.2986667 C104.084138,57.7740976 103.912002,58.1702841 103.567724,58.4872381 C103.223447,58.8041921 102.809658,59.0402532 102.326345,59.1954286 C101.843032,59.350604 101.386209,59.4347936 100.955862,59.448 C100.942621,59.9234309 101.020413,60.3064112 101.189241,60.5969524 C101.35807,60.8874935 101.614619,61.0327619 101.958897,61.0327619 C102.528279,61.0327619 103.044687,60.7686376 103.508138,60.240381 L103.766345,60.6761905 Z M102.27669,56.6449524 C101.886067,56.6449524 101.578208,56.8793627 101.353103,57.3481905 C101.127999,57.8170182 100.995586,58.3386638 100.955862,58.9131429 C101.21407,58.8999364 101.487171,58.8306038 101.775172,58.7051429 C102.063174,58.5796819 102.304827,58.4030488 102.500138,58.1752381 C102.695449,57.9474274 102.793103,57.6849539 102.793103,57.3878095 C102.793103,57.150094 102.748414,56.9668578 102.659034,56.8380952 C102.569655,56.7093327 102.442208,56.6449524 102.27669,56.6449524 Z M111.423172,60.527619 C111.416552,60.8709858 111.482758,61.0426667 111.621793,61.0426667 C111.77407,61.0426667 111.939585,60.9535247 112.118345,60.7752381 L112.277241,61.1417143 C112.244138,61.1945399 112.151449,61.2721265 111.999172,61.3744762 C111.846896,61.4768259 111.663173,61.5676187 111.448,61.6468571 C111.232827,61.7260956 111.012691,61.7657143 110.787586,61.7657143 C110.350619,61.7657143 110.128828,61.5544148 110.122207,61.1318095 L110.271172,58.239619 L110.370483,56.6350476 L108.145931,61.736 L107.37131,61.736 L106.735724,58.3881905 L106.477517,56.9321905 L106.159724,58.6853333 C106.060413,59.2400028 105.949518,59.7088235 105.827034,60.0918095 C105.704551,60.4747956 105.557242,60.8544743 105.385103,61.2308571 C105.292413,61.4289534 105.176552,61.5643171 105.037517,61.6369524 C104.898482,61.7095877 104.676691,61.7459048 104.372138,61.7459048 C104.319172,61.7459048 104.23807,61.7310478 104.128828,61.7013333 C104.019586,61.6716189 103.961655,61.6468572 103.955034,61.6270476 L104.243034,60.3889524 C104.276138,60.408762 104.391999,60.4417775 104.590621,60.488 C104.789242,60.5342225 104.918345,60.5540318 104.977931,60.5474286 C105.262622,59.9465367 105.573791,58.7282631 105.911448,56.8925714 L105.087172,56.6845714 L105.15669,56.1100952 L107.599724,56.1100952 L108.155862,59.2598095 L108.275034,60.1908571 L108.622621,59.2598095 L109.96331,56.1100952 L111.661517,56.1100952 L111.423172,60.527619 Z M115.753103,56.0308571 C116.441659,56.0308571 116.967998,56.2306012 117.332138,56.6300952 C117.696278,57.0295893 117.878345,57.602409 117.878345,58.3485714 C117.878345,58.9626697 117.752553,59.5338386 117.500966,60.0620952 C117.249378,60.5903518 116.895175,61.0113 116.438345,61.3249524 C115.981515,61.6386047 115.458486,61.7954286 114.869241,61.7954286 C114.180686,61.7954286 113.656002,61.592383 113.295172,61.1862857 C112.934343,60.7801884 112.753931,60.2007657 112.753931,59.448 C112.753931,58.8272985 112.878068,58.2561296 113.126345,57.7344762 C113.374622,57.2128228 113.72717,56.7984777 114.184,56.4914286 C114.64083,56.1843794 115.163859,56.0308571 115.753103,56.0308571 Z M115.584276,56.6548571 C115.279723,56.6548571 115.021518,56.7918716 114.809655,57.0659048 C114.597792,57.3399379 114.440552,57.6882519 114.337931,58.1108571 C114.23531,58.5334624 114.184,58.965966 114.184,59.408381 C114.184,60.0356857 114.255172,60.4946017 114.397517,60.7851429 C114.539863,61.075684 114.763309,61.2209524 115.067862,61.2209524 C115.365795,61.2209524 115.617378,61.0822871 115.822621,60.8049524 C116.027863,60.5276177 116.180137,60.1743514 116.279448,59.7451429 C116.378759,59.3159344 116.428414,58.8768276 116.428414,58.4278095 C116.428414,57.8005048 116.360552,57.3481919 116.224828,57.0708571 C116.089103,56.7935224 115.875588,56.6548571 115.584276,56.6548571 Z M123.49931,60.6761905 C123.49269,60.7026033 123.489379,60.742222 123.489379,60.7950476 C123.489379,60.9535246 123.545655,61.0327619 123.658207,61.0327619 C123.717793,61.0327619 123.780689,61.0162541 123.846897,60.9832381 C123.913104,60.9502221 124.002482,60.8907941 124.115034,60.8049524 L124.254069,61.112 C124.214345,61.1780321 124.136552,61.2622217 124.02069,61.3645714 C123.904827,61.4669211 123.759173,61.5593647 123.583724,61.6419048 C123.408275,61.7244449 123.217932,61.7657143 123.01269,61.7657143 C122.747861,61.7657143 122.534346,61.7095879 122.372138,61.5973333 C122.20993,61.4850788 122.128828,61.3365089 122.128828,61.151619 C122.128828,61.1053966 122.132138,61.0690795 122.138759,61.0426667 L122.396966,59.1508571 L120.351172,59.1508571 L120.013517,61.6666667 L118.722483,61.6666667 L119.358069,56.9619048 L118.851586,56.6845714 L118.931034,56.288381 L120.480276,56.0506667 L120.758345,56.1794286 L120.440552,58.5466667 L122.476414,58.5466667 L122.804138,56.1100952 L124.095172,56.1100952 L123.49931,60.6761905 Z M126.985103,57.2491429 C127.223449,56.8925696 127.508136,56.6020329 127.839172,56.3775238 C128.170209,56.1530148 128.517791,56.0407619 128.881931,56.0407619 C129.252692,56.0407619 129.542344,56.1381578 129.750897,56.3329524 C129.959449,56.527747 130.080276,56.8397439 130.113379,57.2689524 C130.345105,56.8859663 130.628136,56.5855249 130.962483,56.367619 C131.296829,56.1497132 131.659308,56.0407619 132.049931,56.0407619 C132.877521,56.0407619 133.29131,56.5260904 133.29131,57.4967619 C133.29131,57.7080645 133.225104,58.1966946 133.09269,58.9626667 L133.052966,59.2201905 L133.00331,59.4777143 C132.890758,60.0918126 132.831172,60.5144115 132.824552,60.7455238 C132.824552,60.9370168 132.880827,61.0327619 132.993379,61.0327619 C133.052966,61.0327619 133.117517,61.0146034 133.187034,60.9782857 C133.256552,60.9419681 133.350896,60.8742862 133.470069,60.7752381 L133.599172,61.0822857 C133.506482,61.2209531 133.344277,61.369523 133.112552,61.528 C132.880826,61.686477 132.60276,61.7657143 132.278345,61.7657143 C131.967171,61.7657143 131.752001,61.7029848 131.632828,61.5775238 C131.513655,61.4520629 131.454069,61.2836836 131.454069,61.072381 C131.454069,60.9403168 131.473931,60.7471759 131.513655,60.4929524 C131.55338,60.2387289 131.596414,59.9828584 131.642759,59.7253333 L131.682483,59.4975238 C131.761931,59.0485057 131.819862,58.6952394 131.856276,58.4377143 C131.89269,58.1801892 131.910897,57.9292711 131.910897,57.6849524 C131.910897,57.3812048 131.876138,57.1732069 131.806621,57.0609524 C131.737103,56.9486979 131.616277,56.8925714 131.444138,56.8925714 C131.232275,56.8925714 131.002208,56.9949196 130.753931,57.199619 C130.505654,57.4043185 130.292139,57.6651413 130.113379,57.9820952 C130.086896,58.3716845 130.043862,58.7843788 129.984276,59.2201905 L129.676414,61.6666667 L128.335724,61.6666667 L128.623724,59.5074286 C128.742897,58.6886308 128.802483,58.0679386 128.802483,57.6453333 C128.795862,57.3415858 128.754483,57.140191 128.678345,57.0411429 C128.602207,56.9420947 128.468139,56.8925714 128.276138,56.8925714 C128.064275,56.8925714 127.824277,57.0081258 127.556138,57.2392381 C127.287999,57.4703504 127.064553,57.7476809 126.885793,58.0712381 L126.389241,61.6666667 L125.098207,61.6666667 L125.733793,56.952 L125.22731,56.6845714 L125.306759,56.2784762 L126.856,56.0407619 L127.084414,56.1497143 L126.985103,57.2491429 Z M138.505103,58.8041905 C138.478621,59.0485092 138.455448,59.22019 138.435586,59.3192381 C138.369379,59.8342883 138.336276,60.1644437 138.336276,60.3097143 C138.336276,60.5738426 138.38262,60.7620312 138.47531,60.8742857 C138.568,60.9865402 138.707034,61.0426667 138.892414,61.0426667 C139.104277,61.0426667 139.314482,60.9766356 139.523034,60.8445714 C139.731587,60.7125073 139.908689,60.5540327 140.054345,60.3691429 L140.630345,56.0902857 L141.941241,56.0902857 L141.305655,60.6761905 C141.292414,60.7950482 141.302345,60.8841902 141.335448,60.943619 C141.368552,61.0030479 141.418207,61.0327619 141.484414,61.0327619 C141.544,61.0327619 141.606896,61.0146034 141.673103,60.9782857 C141.739311,60.9419681 141.831999,60.8742862 141.951172,60.7752381 L142.090207,61.0822857 C142.004138,61.2209531 141.845243,61.369523 141.613517,61.528 C141.381792,61.686477 141.116967,61.7657143 140.819034,61.7657143 C140.587309,61.7657143 140.410208,61.716191 140.287724,61.6171429 C140.165241,61.5180947 140.097379,61.382731 140.084138,61.2110476 L140.074207,61.0921905 C140.074207,61.0393648 140.080828,60.9733337 140.094069,60.8940952 L140.074207,60.8841905 C139.584273,61.471876 139.008279,61.7657143 138.346207,61.7657143 C137.975446,61.7657143 137.660967,61.6650169 137.402759,61.463619 C137.14455,61.2622212 137.012138,60.9403197 137.005517,60.4979048 C137.005517,60.2403797 137.051862,59.7748605 137.144552,59.1013333 C137.171035,58.9362531 137.187586,58.8240003 137.194207,58.7645714 L137.462345,56.9619048 L136.886345,56.6251429 L136.965793,56.2190476 L138.614345,56.0506667 L138.842759,56.159619 L138.505103,58.8041905 Z M149.70731,54.9314286 C149.508689,54.8389837 149.273657,54.7927619 149.002207,54.7927619 C148.47917,54.7927619 148.040553,54.9809505 147.686345,55.3573333 C147.332136,55.7337162 147.070622,56.2074892 146.901793,56.7786667 C146.732965,57.3498441 146.655172,57.9259653 146.668414,58.5070476 C146.72138,60.2106752 147.234478,61.0624762 148.207724,61.0624762 C148.419587,61.0624762 148.633102,61.034413 148.848276,60.9782857 C149.063449,60.9221584 149.243861,60.8181595 149.389517,60.6662857 C149.495449,60.4946023 149.61462,60.1611453 149.747034,59.6659048 L150.561379,59.6659048 L150.352828,61.112 C149.723859,61.5346053 148.932694,61.7459048 147.97931,61.7459048 C147.317238,61.7459048 146.774347,61.6006364 146.350621,61.3100952 C145.926894,61.0195541 145.619035,60.634923 145.427034,60.1561905 C145.235034,59.6774579 145.139034,59.1442569 145.139034,58.5565714 C145.139034,57.6717416 145.311171,56.9024795 145.655448,56.2487619 C145.999726,55.5950444 146.479721,55.0932081 147.095448,54.7432381 C147.711175,54.3932681 148.416272,54.2182857 149.210759,54.2182857 C149.58814,54.2182857 149.887723,54.2347935 150.109517,54.2678095 C150.331311,54.3008256 150.511723,54.3354919 150.650759,54.3718095 C150.789794,54.4081272 150.885793,54.4328888 150.938759,54.4460952 L151.117517,54.495619 L150.819586,56.3775238 L149.846345,56.3775238 L149.70731,54.9314286 Z M155.586483,60.6761905 C155.414344,60.946922 155.134623,61.2011417 154.74731,61.4388571 C154.359998,61.6765726 153.911451,61.7954286 153.401655,61.7954286 C152.924963,61.7954286 152.532691,61.6930804 152.224828,61.488381 C151.916964,61.2836815 151.693518,61.0162556 151.554483,60.6860952 C151.415448,60.3559349 151.345931,59.9960654 151.345931,59.6064762 C151.345931,58.9461554 151.479999,58.3436218 151.748138,57.7988571 C152.016277,57.2540925 152.382067,56.8232397 152.845517,56.5062857 C153.308968,56.1893317 153.825376,56.0308571 154.394759,56.0308571 C154.904554,56.0308571 155.283585,56.1480623 155.531862,56.3824762 C155.780139,56.6168901 155.904276,56.9222838 155.904276,57.2986667 C155.904276,57.7740976 155.73214,58.1702841 155.387862,58.4872381 C155.043584,58.8041921 154.629796,59.0402532 154.146483,59.1954286 C153.66317,59.350604 153.206347,59.4347936 152.776,59.448 C152.762759,59.9234309 152.840551,60.3064112 153.009379,60.5969524 C153.178208,60.8874935 153.434757,61.0327619 153.779034,61.0327619 C154.348417,61.0327619 154.864825,60.7686376 155.328276,60.240381 L155.586483,60.6761905 Z M154.096828,56.6449524 C153.706205,56.6449524 153.398346,56.8793627 153.173241,57.3481905 C152.948137,57.8170182 152.815724,58.3386638 152.776,58.9131429 C153.034208,58.8999364 153.307309,58.8306038 153.59531,58.7051429 C153.883312,58.5796819 154.124965,58.4030488 154.320276,58.1752381 C154.515587,57.9474274 154.613241,57.6849539 154.613241,57.3878095 C154.613241,57.150094 154.568552,56.9668578 154.479172,56.8380952 C154.389793,56.7093327 154.262346,56.6449524 154.096828,56.6449524 Z M158.555862,56.6944762 C158.728001,56.5029832 158.93655,56.3461593 159.181517,56.224 C159.426484,56.1018407 159.694619,56.0407619 159.985931,56.0407619 C160.535451,56.0407619 160.95255,56.2256489 161.237241,56.5954286 C161.521932,56.9652082 161.664276,57.4802507 161.664276,58.1405714 C161.664276,58.7678762 161.531863,59.3588544 161.267034,59.9135238 C161.002206,60.4681932 160.626485,60.9155539 160.139862,61.255619 C159.653239,61.5956842 159.092141,61.7657143 158.456552,61.7657143 C158.284413,61.7657143 158.089105,61.7426034 157.870621,61.696381 L157.523034,64.1824762 L156.251862,64.1824762 L157.235034,56.9222857 L156.70869,56.6746667 L156.788138,56.2784762 L158.396966,56.0407619 L158.625379,56.1497143 L158.555862,56.6944762 Z M157.96,61.0327619 C158.112277,61.1120004 158.320826,61.151619 158.585655,61.151619 C158.963036,61.151619 159.279171,61.0063507 159.534069,60.7158095 C159.788967,60.4252684 159.977655,60.0521928 160.100138,59.5965714 C160.222621,59.1409501 160.283862,58.6622247 160.283862,58.160381 C160.283862,57.7509821 160.216001,57.4208267 160.080276,57.1699048 C159.944551,56.9189829 159.747587,56.7935238 159.489379,56.7935238 C159.284137,56.7935238 159.095449,56.8546026 158.92331,56.9767619 C158.751172,57.0989212 158.598897,57.249142 158.466483,57.4274286 L157.96,61.0327619 Z M165.448,56.1001905 C165.977658,56.1001905 166.37324,56.1942848 166.634759,56.3824762 C166.896277,56.5706676 167.027034,56.7968241 167.027034,57.0609524 C167.027034,57.3779063 166.927725,57.6585385 166.729103,57.9028571 C166.530482,58.1471758 166.19283,58.3485706 165.716138,58.5070476 C166.179589,58.5004444 166.520551,58.6027926 166.739034,58.8140952 C166.957518,59.0253979 167.066759,59.2928238 167.066759,59.616381 C167.066759,59.9927638 166.957518,60.3443793 166.739034,60.6712381 C166.520551,60.9980969 166.202761,61.2605704 165.785655,61.4586667 C165.36855,61.6567629 164.872003,61.7558095 164.296,61.7558095 C163.693514,61.7558095 163.206898,61.5544147 162.836138,61.151619 C162.465377,60.7488234 162.28,60.1941623 162.28,59.487619 C162.28,58.7480598 162.447171,58.124066 162.781517,57.615619 C163.115864,57.1071721 163.527998,56.7274933 164.017931,56.4765714 C164.507865,56.2256495 164.984549,56.1001905 165.448,56.1001905 Z M164.365517,58.4179048 C164.815726,58.3386663 165.153378,58.2082549 165.378483,58.0266667 C165.603587,57.8450785 165.716138,57.5925096 165.716138,57.2689524 C165.716138,56.8529503 165.510899,56.6449524 165.100414,56.6449524 C164.934896,56.6449524 164.749518,56.714285 164.544276,56.8529524 C164.339033,56.9916197 164.155311,57.20457 163.993103,57.4918095 C163.830896,57.7790491 163.736552,58.1339661 163.710069,58.5565714 L164.365517,58.4179048 Z M163.610759,59.0220952 C163.597517,59.0947305 163.590897,59.2234911 163.590897,59.408381 L163.590897,59.7847619 C163.590897,60.2205736 163.671999,60.5705384 163.834207,60.8346667 C163.996415,61.098795 164.219861,61.2308571 164.504552,61.2308571 C164.723036,61.2308571 164.924965,61.1730799 165.110345,61.0575238 C165.295725,60.9419677 165.444689,60.7785407 165.557241,60.5672381 C165.669794,60.3559355 165.726069,60.114922 165.726069,59.8441905 C165.726069,59.5536493 165.659863,59.3142867 165.527448,59.1260952 C165.395034,58.9379038 165.189794,58.8438095 164.911724,58.8438095 C164.799172,58.8438095 164.706483,58.8471111 164.633655,58.8537143 L163.610759,59.0220952 Z M169.628966,58.8041905 C169.602483,59.0485092 169.57931,59.22019 169.559448,59.3192381 C169.493241,59.8342883 169.460138,60.1644437 169.460138,60.3097143 C169.460138,60.5738426 169.506482,60.7620312 169.599172,60.8742857 C169.691863,60.9865402 169.830896,61.0426667 170.016276,61.0426667 C170.228139,61.0426667 170.438344,60.9766356 170.646897,60.8445714 C170.855449,60.7125073 171.032551,60.5540327 171.178207,60.3691429 L171.754207,56.0902857 L173.065103,56.0902857 L172.429517,60.6761905 C172.416276,60.7950482 172.426207,60.8841902 172.45931,60.943619 C172.492414,61.0030479 172.542069,61.0327619 172.608276,61.0327619 C172.667862,61.0327619 172.730758,61.0146034 172.796966,60.9782857 C172.863173,60.9419681 172.955861,60.8742862 173.075034,60.7752381 L173.214069,61.0822857 C173.128,61.2209531 172.969105,61.369523 172.737379,61.528 C172.505654,61.686477 172.240829,61.7657143 171.942897,61.7657143 C171.711171,61.7657143 171.53407,61.716191 171.411586,61.6171429 C171.289103,61.5180947 171.221241,61.382731 171.208,61.2110476 L171.198069,61.0921905 C171.198069,61.0393648 171.20469,60.9733337 171.217931,60.8940952 L171.198069,60.8841905 C170.708135,61.471876 170.132141,61.7657143 169.470069,61.7657143 C169.099308,61.7657143 168.784829,61.6650169 168.526621,61.463619 C168.268413,61.2622212 168.136,60.9403197 168.129379,60.4979048 C168.129379,60.2403797 168.175724,59.7748605 168.268414,59.1013333 C168.294897,58.9362531 168.311448,58.8240003 168.318069,58.7645714 L168.586207,56.9619048 L168.010207,56.6251429 L168.089655,56.2190476 L169.738207,56.0506667 L169.966621,56.159619 L169.628966,58.8041905 Z M177.494345,57.5165714 C177.308965,57.2854592 177.145104,57.0989213 177.002759,56.9569524 C176.860413,56.8149834 176.736276,56.744 176.630345,56.744 C176.385378,56.744 176.158622,56.8562528 175.950069,57.0807619 C175.741516,57.305271 175.57269,57.6189186 175.443586,58.0217143 C175.314482,58.42451 175.249931,58.8768229 175.249931,59.3786667 C175.249931,59.9267329 175.329379,60.3278717 175.488276,60.5820952 C175.647173,60.8363187 175.888826,60.9634286 176.213241,60.9634286 C176.491312,60.9634286 176.727999,60.9106037 176.92331,60.8049524 C177.118622,60.6993011 177.308965,60.5507311 177.494345,60.3592381 L177.752552,60.7950476 C177.587034,61.0393663 177.327174,61.2622212 176.972966,61.463619 C176.618757,61.6650169 176.200002,61.7657143 175.71669,61.7657143 C175.147307,61.7657143 174.700415,61.5659703 174.376,61.1664762 C174.051585,60.7669821 173.889379,60.2007656 173.889379,59.4678095 C173.889379,58.9131401 174.00524,58.373336 174.236966,57.848381 C174.468691,57.3234259 174.812963,56.8909223 175.269793,56.5508571 C175.726623,56.210792 176.276135,56.0407619 176.918345,56.0407619 C177.123587,56.0407619 177.337102,56.0589205 177.558897,56.0952381 C177.780691,56.1315557 177.961103,56.1827298 178.100138,56.2487619 L177.762483,57.536381 L177.494345,57.5165714 Z" id="Ремонт-и-Сервис"></path>
                        <polygon id="Line-3" fill-rule="nonzero" points="37.062069 50.5857143 37.062069 48.7285714 177.958621 48.7285714 177.958621 50.5857143"></polygon>
                        <path d="M33.0741608,76.4457696 L34.3122608,76.3558371 L34.4926031,78.8254864 L33.254503,78.915419 C26.171866,79.4298844 20.2633473,79.1643714 15.5194148,78.1081868 C9.30922091,76.7255552 5.12646281,73.9608641 2.85264735,70.6567207 C-3.12279781,61.9736381 2.54772745,48.9867376 12.8250329,38.7483766 C18.54582,33.0492676 25.3815434,27.957287 35.9927329,21.0081929 C48.9438706,12.5267051 64.4432797,6.14397304 84.6490108,1.63979195 C95.4485644,-0.767601519 109.555334,-0.442984794 116.351061,4.85740105 C119.393485,7.23036569 121.69281,11.7632904 121.65377,15.8785294 C121.633334,18.0326833 120.554132,21.1822185 118.434523,25.4343799 L117.881889,26.5430228 L115.658721,25.4406786 L116.211356,24.3320357 C118.174746,20.3932648 119.155215,17.5318717 119.171122,15.8551016 C119.202681,12.5284606 117.269374,8.71710925 114.821622,6.80796354 C108.798822,2.11042929 95.3121988,1.80008301 85.1905636,4.05635761 C65.2703744,8.49688681 50.0495572,14.7648934 37.3554521,23.0780547 C26.8761785,29.9407593 20.1495302,34.951489 14.5796007,40.500312 C5.06683248,49.977033 -0.148088068,61.9204863 4.89964252,69.2554816 C6.81348936,72.0365448 10.455064,74.443528 16.0603266,75.6914784 C20.5407399,76.6889933 26.2151954,76.9439881 33.0741608,76.4457696 Z" id="Line" fill-rule="nonzero"></path>
                        <path d="M76.6953766,59.9924783 L77.7533162,59.3447455 L79.0522181,61.455027 L77.9942785,62.1027598 C71.1928065,66.2670211 63.4582395,69.6210153 54.7931044,72.1666257 C46.1094928,74.7176639 38.8207758,75.7590681 24.8856412,75.7590681 C20.7905908,75.7590681 16.0430685,75.0275192 12.2582418,73.3816017 C6.70348534,70.9659903 3.73061623,66.8273363 4.5290414,60.8832242 C5.45960005,53.9554052 10.4562794,46.5348081 19.4521208,38.5624489 L20.3800825,37.740064 L22.0292151,39.5910776 L21.1012534,40.4134625 C12.5082245,48.0288383 7.82673173,54.9813501 6.98981636,61.2120139 C6.35518321,65.936728 8.62879304,69.1019141 13.250562,71.1117949 C16.67368,72.6004152 21.1026466,73.2828776 24.8856412,73.2828776 C38.5840827,73.2828776 45.6365342,72.2752308 54.0915939,69.7913356 C62.5530139,67.305572 70.0867659,64.0386585 76.6953766,59.9924783 Z" id="Line-2" fill-rule="nonzero"></path>
                        <path d="M23.1757163,38.5142857 C23.8175898,38.5142857 24.337931,37.9599716 24.337931,37.2761905 C24.337931,36.5924094 23.8175898,36.0380952 23.1757163,36.0380952 C22.5338428,36.0380952 21.8551724,36.5924094 21.8551724,37.2761905 C21.8551724,37.9599716 22.5338428,38.5142857 23.1757163,38.5142857 Z" id="Oval" fill-rule="nonzero"></path>
                        <polygon id="Triangle" fill-rule="nonzero" points="31.5194431 30.0346024 25.5075728 36.6515806 23.8535622 34.8985695"></polygon>
                        <path d="M45.3966897,29.3313333 L45.2787586,30.366381 L43.4390345,30.6251429 L41.9295172,42.2694286 L42.8493793,41.0932381 L51.246069,31.9424762 L51.4347586,30.6251429 L49.7365517,30.366381 L49.8544828,29.3313333 L55.8925517,29.3313333 L55.7746207,30.366381 L53.982069,30.6251429 L52.0715862,45.5627619 L53.9348966,45.8450476 L53.8641379,46.8095238 L47.6845517,46.8095238 L47.7553103,45.8450476 L49.5242759,45.5627619 L51.0102069,33.8714286 L49.4535172,35.7062857 L41.6936552,44.2219048 L41.5049655,45.5627619 L43.3682759,45.8450476 L43.2975172,46.8095238 L37.1651034,46.8095238 L37.2594483,45.8450476 L38.934069,45.5627619 L40.8445517,30.6251429 L39.2642759,30.366381 L39.3822069,29.3313333 L45.3966897,29.3313333 Z M67.7328276,44.9511429 C67.7328276,45.1393343 67.7682065,45.2843963 67.8389655,45.3863333 C67.9097245,45.4882704 67.9922754,45.5392381 68.0866207,45.5392381 C68.3853808,45.5392381 68.7548944,45.3510495 69.1951724,44.9746667 L69.5017931,45.6098095 C69.4074478,45.7509531 69.234484,45.9352211 68.9828966,46.162619 C68.7313091,46.390017 68.4128985,46.593888 68.0276552,46.7742381 C67.6424119,46.9545882 67.2375194,47.0447619 66.8129655,47.0447619 C66.3097906,47.0447619 65.9048981,46.9349852 65.5982759,46.7154286 C65.2916536,46.4958719 65.1383448,46.1743831 65.1383448,45.7509524 L65.161931,45.4921905 L65.8223448,40.740381 L60.0673103,40.740381 L59.2417931,46.8095238 L56.8124138,46.8095238 L58.3455172,35.4945714 L57.1662069,34.9064762 L57.3548966,34.0125714 L60.3975172,33.4715238 L60.9871724,33.7773333 L60.2324138,39.4465714 L65.9874483,39.4465714 L66.7422069,33.6832381 L69.148,33.6832381 L67.7564138,44.7159048 L67.7328276,44.9511429 Z M75.7049655,36.4825714 C76.3339342,35.6043448 77.0729613,34.8790346 77.922069,34.306619 C78.7711767,33.7342035 79.6359956,33.448 80.5165517,33.448 C81.3656594,33.448 82.0221356,33.6832357 82.486,34.1537143 C82.9498644,34.6241928 83.2132411,35.3769472 83.2761379,36.412 C83.8579339,35.5180908 84.5537201,34.8006218 85.3635172,34.2595714 C86.1733144,33.7185211 87.0184784,33.448 87.8990345,33.448 C88.7638664,33.448 89.4478596,33.7224417 89.9510345,34.2713333 C90.4542094,34.820225 90.7057931,35.6905972 90.7057931,36.8824762 C90.7057931,37.4784157 90.5642773,38.5605001 90.2812414,40.1287619 L90.1397241,40.9991429 C90.0611031,41.4382562 90.0060691,41.7362214 89.9746207,41.8930476 C89.8802754,42.4262566 89.7898625,42.97514 89.7033793,43.5397143 C89.6168961,44.1042885 89.5736552,44.5590776 89.5736552,44.9040952 C89.5736552,45.3275259 89.683723,45.5392381 89.9038621,45.5392381 C90.0611042,45.5392381 90.234068,45.4882704 90.4227586,45.3863333 C90.6114492,45.2843963 90.8473089,45.1079695 91.1303448,44.8570476 L91.4133793,45.4686667 C91.2089645,45.782319 90.8551749,46.1234109 90.352,46.4919524 C89.8488251,46.8604939 89.2591758,47.0447619 88.5830345,47.0447619 C88.0012385,47.0447619 87.592415,46.9114617 87.3565517,46.6448571 C87.1206885,46.3782526 87.0027586,45.9940343 87.0027586,45.4921905 C87.0184828,44.9903467 87.1521367,44.0337213 87.4037241,42.6222857 L87.5688276,41.5872381 C87.5845518,41.4617772 87.6238618,41.2579062 87.6867586,40.975619 C87.7182071,40.8187929 87.800758,40.3247978 87.9344138,39.493619 C88.0680696,38.6624403 88.1348966,37.9018447 88.1348966,37.2118095 C88.1348966,36.4433612 88.0326907,35.9180014 87.8282759,35.6357143 C87.623861,35.3534272 87.2857955,35.2122857 86.814069,35.2122857 C86.2794456,35.2122857 85.6780033,35.4749656 85.0097241,36.0003333 C84.3414449,36.525701 83.7478647,37.1961229 83.2289655,38.011619 C83.1817929,38.7330195 83.071725,39.7288508 82.8987586,40.9991429 L82.1204138,46.8095238 L79.6202759,46.8095238 L80.3278621,41.6342857 C80.6423464,39.6896411 80.7995862,38.1841323 80.7995862,37.1177143 C80.783862,36.3649486 80.6777251,35.8591918 80.4811724,35.6004286 C80.2846197,35.3416654 79.9190372,35.2122857 79.3844138,35.2122857 C78.8026178,35.2122857 78.1382796,35.510251 77.3913793,36.1061905 C76.644479,36.70213 76.0115888,37.4235196 75.4926897,38.270381 L74.3133793,46.8095238 L71.884,46.8095238 L73.4171034,35.4710476 L72.2377931,34.8829524 L72.4264828,33.9890476 L75.4691034,33.448 L75.9644138,33.7067619 L75.7049655,36.4825714 Z M103.277241,44.5512381 C102.868412,45.1628602 102.211936,45.7352672 101.307793,46.2684762 C100.403651,46.8016852 99.3933849,47.0682857 98.2769655,47.0682857 C97.2077188,47.0682857 96.3193139,46.8291294 95.6117241,46.3508095 C94.9041344,45.8724897 94.385243,45.2451944 94.0550345,44.4689048 C93.7248259,43.6926152 93.5597241,42.8575283 93.5597241,41.963619 C93.5597241,40.4424051 93.8663418,39.02707 94.4795862,37.7175714 C95.0928307,36.4080728 95.9340636,35.369115 97.0033103,34.6006667 C98.0725571,33.8322184 99.2518556,33.448 100.541241,33.448 C101.673385,33.448 102.526411,33.7146005 103.100345,34.2478095 C103.674279,34.7810185 103.961241,35.4867258 103.961241,36.3649524 C103.961241,37.4941009 103.52097,38.4389645 102.640414,39.1995714 C101.759858,39.9601784 100.714213,40.5286648 99.5034483,40.9050476 C98.2926836,41.2814305 97.1998669,41.4774602 96.2249655,41.4931429 C96.1620687,42.6066087 96.3468254,43.5553929 96.7792414,44.3395238 C97.2116573,45.1236547 97.8995815,45.5157143 98.8430345,45.5157143 C99.5506242,45.5157143 100.238548,45.3471287 100.906828,45.0099524 C101.575107,44.6727761 102.184411,44.2140664 102.734759,43.6338095 L103.277241,44.5512381 Z M99.9751724,34.7182857 C99.2675827,34.7182857 98.6425544,35.0084098 98.100069,35.5886667 C97.5575835,36.1689235 97.129105,36.8942337 96.8146207,37.764619 C96.5001364,38.6350044 96.3114486,39.4936148 96.2485517,40.3404762 C97.0033141,40.309111 97.7934441,40.1405253 98.6189655,39.8347143 C99.4444869,39.5289032 100.132411,39.0897965 100.682759,38.517381 C101.233106,37.9449654 101.508276,37.2902259 101.508276,36.5531429 C101.508276,35.9572034 101.374622,35.5024143 101.10731,35.1887619 C100.839999,34.8751095 100.462623,34.7182857 99.9751724,34.7182857 Z M115.376966,44.9511429 C115.376966,45.1550169 115.412344,45.3039995 115.483103,45.3980952 C115.553862,45.4921909 115.636413,45.5392381 115.730759,45.5392381 C116.029519,45.5392381 116.399032,45.3510495 116.83931,44.9746667 L117.145931,45.6098095 C116.925792,45.9077793 116.544485,46.2214269 116.002,46.5507619 C115.459515,46.8800969 114.897382,47.0447619 114.315586,47.0447619 C113.828135,47.0447619 113.442898,46.9349852 113.159862,46.7154286 C112.876826,46.4958719 112.73531,46.1587007 112.73531,45.7039048 C112.73531,45.5627612 112.743172,45.4608257 112.758897,45.3980952 L114.150483,35.0240952 L111.697517,35.0240952 C111.14717,37.376488 110.577175,39.4073565 109.987517,41.1167619 C109.397859,42.8261673 108.741383,44.1748522 108.018069,45.1628571 C107.656412,45.7744792 107.247588,46.2331889 106.791586,46.539 C106.335584,46.8448111 105.816693,46.9977143 105.234897,46.9977143 C105.077654,46.9977143 104.86145,46.9624289 104.586276,46.8918571 C104.311102,46.8212854 104.157793,46.7624764 104.126345,46.7154286 L104.692414,44.2454286 C104.755311,44.2924764 104.987239,44.3669677 105.388207,44.4689048 C105.789174,44.5708418 106.060413,44.6218095 106.201931,44.6218095 C106.484967,44.6218095 106.799447,44.355209 107.145379,43.822 C107.758624,42.9908212 108.395445,41.7048658 109.055862,39.9640952 C109.716279,38.2233246 110.195861,36.6550863 110.494621,35.2593333 L107.664276,34.8594286 L107.805793,33.6832381 L116.792138,33.6832381 L115.400552,44.7159048 L115.376966,44.9511429 Z M128.726759,44.9511429 C128.726759,45.1550169 128.762138,45.3039995 128.832897,45.3980952 C128.903656,45.4921909 128.986206,45.5392381 129.080552,45.5392381 C129.379312,45.5392381 129.748825,45.3510495 130.189103,44.9746667 L130.495724,45.6098095 C130.275585,45.9077793 129.894279,46.2214269 129.351793,46.5507619 C128.809308,46.8800969 128.247175,47.0447619 127.665379,47.0447619 C127.177929,47.0447619 126.792691,46.9349852 126.509655,46.7154286 C126.226619,46.4958719 126.085103,46.1587007 126.085103,45.7039048 C126.085103,45.5627612 126.092965,45.4608257 126.10869,45.3980952 L127.500276,35.0240952 L125.04731,35.0240952 C124.496963,37.376488 123.926968,39.4073565 123.33731,41.1167619 C122.747652,42.8261673 122.091176,44.1748522 121.367862,45.1628571 C121.006205,45.7744792 120.597382,46.2331889 120.141379,46.539 C119.685377,46.8448111 119.166486,46.9977143 118.58469,46.9977143 C118.427447,46.9977143 118.211243,46.9624289 117.936069,46.8918571 C117.660895,46.8212854 117.507586,46.7624764 117.476138,46.7154286 L118.042207,44.2454286 C118.105104,44.2924764 118.337032,44.3669677 118.738,44.4689048 C119.138968,44.5708418 119.410206,44.6218095 119.551724,44.6218095 C119.83476,44.6218095 120.14924,44.355209 120.495172,43.822 C121.108417,42.9908212 121.745238,41.7048658 122.405655,39.9640952 C123.066072,38.2233246 123.545654,36.6550863 123.844414,35.2593333 L121.014069,34.8594286 L121.155586,33.6832381 L130.141931,33.6832381 L128.750345,44.7159048 L128.726759,44.9511429 Z M142.194483,44.5512381 C141.785653,45.1628602 141.129177,45.7352672 140.225034,46.2684762 C139.320892,46.8016852 138.310626,47.0682857 137.194207,47.0682857 C136.12496,47.0682857 135.236555,46.8291294 134.528966,46.3508095 C133.821376,45.8724897 133.302484,45.2451944 132.972276,44.4689048 C132.642067,43.6926152 132.476966,42.8575283 132.476966,41.963619 C132.476966,40.4424051 132.783583,39.02707 133.396828,37.7175714 C134.010072,36.4080728 134.851305,35.369115 135.920552,34.6006667 C136.989798,33.8322184 138.169097,33.448 139.458483,33.448 C140.590626,33.448 141.443652,33.7146005 142.017586,34.2478095 C142.59152,34.7810185 142.878483,35.4867258 142.878483,36.3649524 C142.878483,37.4941009 142.438211,38.4389645 141.557655,39.1995714 C140.677099,39.9601784 139.631454,40.5286648 138.42069,40.9050476 C137.209925,41.2814305 136.117108,41.4774602 135.142207,41.4931429 C135.07931,42.6066087 135.264067,43.5553929 135.696483,44.3395238 C136.128899,45.1236547 136.816823,45.5157143 137.760276,45.5157143 C138.467866,45.5157143 139.15579,45.3471287 139.824069,45.0099524 C140.492348,44.6727761 141.101652,44.2140664 141.652,43.6338095 L142.194483,44.5512381 Z M138.892414,34.7182857 C138.184824,34.7182857 137.559796,35.0084098 137.01731,35.5886667 C136.474825,36.1689235 136.046346,36.8942337 135.731862,37.764619 C135.417378,38.6350044 135.22869,39.4936148 135.165793,40.3404762 C135.920555,40.309111 136.710686,40.1405253 137.536207,39.8347143 C138.361728,39.5289032 139.049652,39.0897965 139.6,38.517381 C140.150348,37.9449654 140.425517,37.2902259 140.425517,36.5531429 C140.425517,35.9572034 140.291863,35.5024143 140.024552,35.1887619 C139.75724,34.8751095 139.379865,34.7182857 138.892414,34.7182857 Z M150.544,39.4700952 C151.031451,39.109395 151.455998,38.760462 151.817655,38.4232857 C152.179312,38.0861094 152.56455,37.6822881 152.973379,37.2118095 C153.146346,37.0236181 153.303585,36.8119059 153.445103,36.5766667 C153.586621,36.3414274 153.673103,36.121874 153.704552,35.918 C153.704552,35.8082217 153.673104,35.6553184 153.610207,35.4592857 C153.54731,35.263253 153.515862,35.0711438 153.515862,34.8829524 C153.515862,34.4752043 153.673102,34.1497949 153.987586,33.9067143 C154.302071,33.6636337 154.679446,33.5420952 155.119724,33.5420952 C155.465657,33.5420952 155.748689,33.6401101 155.968828,33.8361429 C156.188967,34.0321756 156.299034,34.3183791 156.299034,34.6947619 C156.299034,35.306384 156.059244,35.9140763 155.579655,36.5178571 C155.100067,37.1216379 154.553658,37.6666007 153.940414,38.1527619 C153.327169,38.6389231 152.525246,39.2191712 151.534621,39.8935238 C151.786208,40.1914936 152.077102,40.6188385 152.40731,41.1755714 C152.737519,41.7323044 152.934069,42.065555 152.996966,42.1753333 C153.578762,43.1947035 154.070136,43.9905844 154.471103,44.563 C154.872071,45.1354156 155.237654,45.4529838 155.567862,45.5157143 L156.393379,45.8920952 L156.299034,46.8095238 L153.798897,46.8095238 C153.342894,46.8095238 152.926209,46.5233203 152.548828,45.9509048 C152.171446,45.3784892 151.731175,44.5434023 151.228,43.445619 C150.771998,42.4419315 150.390691,41.6970183 150.084069,41.2108571 C149.777447,40.724696 149.443312,40.481619 149.081655,40.481619 L148.374069,40.481619 L147.548552,46.8095238 L145.119172,46.8095238 L146.62869,35.4945714 L145.449379,34.9064762 L145.638069,34.0125714 L148.704276,33.4715238 L149.270345,33.7773333 L148.515586,39.4700952 L150.544,39.4700952 Z M161.888966,36.4825714 C162.517934,35.6043448 163.256961,34.8790346 164.106069,34.306619 C164.955177,33.7342035 165.819996,33.448 166.700552,33.448 C167.549659,33.448 168.206136,33.6832357 168.67,34.1537143 C169.133864,34.6241928 169.397241,35.3769472 169.460138,36.412 C170.041934,35.5180908 170.73772,34.8006218 171.547517,34.2595714 C172.357314,33.7185211 173.202478,33.448 174.083034,33.448 C174.947866,33.448 175.63186,33.7224417 176.135034,34.2713333 C176.638209,34.820225 176.889793,35.6905972 176.889793,36.8824762 C176.889793,37.4784157 176.748277,38.5605001 176.465241,40.1287619 L176.323724,40.9991429 C176.245103,41.4382562 176.190069,41.7362214 176.158621,41.8930476 C176.064275,42.4262566 175.973863,42.97514 175.887379,43.5397143 C175.800896,44.1042885 175.757655,44.5590776 175.757655,44.9040952 C175.757655,45.3275259 175.867723,45.5392381 176.087862,45.5392381 C176.245104,45.5392381 176.418068,45.4882704 176.606759,45.3863333 C176.795449,45.2843963 177.031309,45.1079695 177.314345,44.8570476 L177.597379,45.4686667 C177.392964,45.782319 177.039175,46.1234109 176.536,46.4919524 C176.032825,46.8604939 175.443176,47.0447619 174.767034,47.0447619 C174.185238,47.0447619 173.776415,46.9114617 173.540552,46.6448571 C173.304688,46.3782526 173.186759,45.9940343 173.186759,45.4921905 C173.202483,44.9903467 173.336137,44.0337213 173.587724,42.6222857 L173.752828,41.5872381 C173.768552,41.4617772 173.807862,41.2579062 173.870759,40.975619 C173.902207,40.8187929 173.984758,40.3247978 174.118414,39.493619 C174.25207,38.6624403 174.318897,37.9018447 174.318897,37.2118095 C174.318897,36.4433612 174.216691,35.9180014 174.012276,35.6357143 C173.807861,35.3534272 173.469795,35.2122857 172.998069,35.2122857 C172.463446,35.2122857 171.862003,35.4749656 171.193724,36.0003333 C170.525445,36.525701 169.931865,37.1961229 169.412966,38.011619 C169.365793,38.7330195 169.255725,39.7288508 169.082759,40.9991429 L168.304414,46.8095238 L165.804276,46.8095238 L166.511862,41.6342857 C166.826346,39.6896411 166.983586,38.1841323 166.983586,37.1177143 C166.967862,36.3649486 166.861725,35.8591918 166.665172,35.6004286 C166.46862,35.3416654 166.103037,35.2122857 165.568414,35.2122857 C164.986618,35.2122857 164.32228,35.510251 163.575379,36.1061905 C162.828479,36.70213 162.195589,37.4235196 161.67669,38.270381 L160.497379,46.8095238 L158.068,46.8095238 L159.601103,35.4710476 L158.421793,34.8829524 L158.610483,33.9890476 L161.653103,33.448 L162.148414,33.7067619 L161.888966,36.4825714 Z" id="Интеллект"></path>
                    </g>
                </g>
            </g>
        </g>
    </g>
</svg>